<mxfile host="app.diagrams.net" modified="2023-06-20T18:58:12.040Z" agent="Mozilla/5.0 (Windows NT 10.0; Win64; x64) AppleWebKit/537.36 (KHTML, like Gecko) Chrome/114.0.0.0 Safari/537.36 Viewer/93.9.5398.99" etag="3LJfD__0yW59b3fhgqkQ" version="21.5.0" type="github">
  <diagram name="PÃ¡gina-1" id="OYloeNWGinfhjjDOEFf0">
    <mxGraphModel dx="1050" dy="581" grid="1" gridSize="10" guides="1" tooltips="1" connect="1" arrows="1" fold="1" page="1" pageScale="1" pageWidth="827" pageHeight="1169" math="0" shadow="0">
      <root>
        <mxCell id="0" />
        <mxCell id="1" parent="0" />
        <mxCell id="2vxHJ7zRNE8x1xkcuxjA-1" value="NORMATIVA" style="whiteSpace=wrap;html=1;align=center;" parent="1" vertex="1">
          <mxGeometry x="120" y="90" width="130" height="60" as="geometry" />
        </mxCell>
        <mxCell id="2vxHJ7zRNE8x1xkcuxjA-2" value="REGISTRO" style="whiteSpace=wrap;html=1;align=center;" parent="1" vertex="1">
          <mxGeometry x="260" y="230" width="100" height="40" as="geometry" />
        </mxCell>
        <mxCell id="hgkGXKBCoWghcFRAlhSY-2" style="edgeStyle=orthogonalEdgeStyle;rounded=0;orthogonalLoop=1;jettySize=auto;html=1;exitX=0;exitY=0.5;exitDx=0;exitDy=0;entryX=1;entryY=0.5;entryDx=0;entryDy=0;" edge="1" parent="1" source="2vxHJ7zRNE8x1xkcuxjA-3" target="2vxHJ7zRNE8x1xkcuxjA-1">
          <mxGeometry relative="1" as="geometry" />
        </mxCell>
        <mxCell id="2vxHJ7zRNE8x1xkcuxjA-3" value="ENTIDAD PUBLICA" style="whiteSpace=wrap;html=1;align=center;" parent="1" vertex="1">
          <mxGeometry x="390" y="90" width="130" height="60" as="geometry" />
        </mxCell>
        <mxCell id="2vxHJ7zRNE8x1xkcuxjA-4" value="CATEGORIA" style="whiteSpace=wrap;html=1;align=center;" parent="1" vertex="1">
          <mxGeometry x="40" y="260" width="100" height="40" as="geometry" />
        </mxCell>
        <mxCell id="2vxHJ7zRNE8x1xkcuxjA-8" value="id&amp;nbsp; nro normativa" style="ellipse;whiteSpace=wrap;html=1;align=center;fontStyle=4;" parent="1" vertex="1">
          <mxGeometry x="10" y="80" width="100" height="40" as="geometry" />
        </mxCell>
        <mxCell id="2vxHJ7zRNE8x1xkcuxjA-9" value="tipo de normativa" style="ellipse;whiteSpace=wrap;html=1;align=center;" parent="1" vertex="1">
          <mxGeometry x="55.03" y="30" width="100" height="40" as="geometry" />
        </mxCell>
        <mxCell id="2vxHJ7zRNE8x1xkcuxjA-10" value="fecha de promulgacion" style="ellipse;whiteSpace=wrap;html=1;align=center;" parent="1" vertex="1">
          <mxGeometry x="180" y="30" width="100" height="40" as="geometry" />
        </mxCell>
        <mxCell id="2vxHJ7zRNE8x1xkcuxjA-11" value="se corresponde a" style="shape=rhombus;perimeter=rhombusPerimeter;whiteSpace=wrap;html=1;align=center;rotation=-15;" parent="1" vertex="1">
          <mxGeometry x="200.18" y="167.08" width="100.54" height="54.21" as="geometry" />
        </mxCell>
        <mxCell id="2vxHJ7zRNE8x1xkcuxjA-12" value="id nro registro" style="ellipse;whiteSpace=wrap;html=1;align=center;fontStyle=4;" parent="1" vertex="1">
          <mxGeometry x="370" y="220" width="100" height="40" as="geometry" />
        </mxCell>
        <mxCell id="2vxHJ7zRNE8x1xkcuxjA-14" value="nombre y descripcion" style="ellipse;whiteSpace=wrap;html=1;align=center;" parent="1" vertex="1">
          <mxGeometry x="370" y="260" width="100" height="40" as="geometry" />
        </mxCell>
        <mxCell id="2vxHJ7zRNE8x1xkcuxjA-15" value="palabras clave" style="ellipse;whiteSpace=wrap;html=1;align=center;" parent="1" vertex="1">
          <mxGeometry x="370" y="300" width="100" height="40" as="geometry" />
        </mxCell>
        <mxCell id="2vxHJ7zRNE8x1xkcuxjA-16" value="id organo legislativo" style="ellipse;whiteSpace=wrap;html=1;align=center;fontStyle=4;" parent="1" vertex="1">
          <mxGeometry x="520" y="60" width="100" height="40" as="geometry" />
        </mxCell>
        <mxCell id="2vxHJ7zRNE8x1xkcuxjA-17" value="jurisdiccion" style="ellipse;whiteSpace=wrap;html=1;align=center;" parent="1" vertex="1">
          <mxGeometry x="520" y="100" width="100" height="40" as="geometry" />
        </mxCell>
        <mxCell id="2vxHJ7zRNE8x1xkcuxjA-18" value="es emitida por" style="shape=rhombus;perimeter=rhombusPerimeter;whiteSpace=wrap;html=1;align=center;" parent="1" vertex="1">
          <mxGeometry x="270" y="95" width="100" height="50" as="geometry" />
        </mxCell>
        <mxCell id="2vxHJ7zRNE8x1xkcuxjA-19" value="id categoria" style="ellipse;whiteSpace=wrap;html=1;align=center;fontStyle=4;" parent="1" vertex="1">
          <mxGeometry x="40" y="320" width="100" height="40" as="geometry" />
        </mxCell>
        <mxCell id="2vxHJ7zRNE8x1xkcuxjA-20" value="tiene una" style="shape=rhombus;perimeter=rhombusPerimeter;whiteSpace=wrap;html=1;align=center;rotation=15;" parent="1" vertex="1">
          <mxGeometry x="60" y="165.79" width="90.05" height="79.99" as="geometry" />
        </mxCell>
        <mxCell id="hgkGXKBCoWghcFRAlhSY-1" value="" style="edgeStyle=entityRelationEdgeStyle;fontSize=12;html=1;endArrow=ERzeroToMany;startArrow=ERzeroToOne;rounded=0;" edge="1" parent="1">
          <mxGeometry width="100" height="100" relative="1" as="geometry">
            <mxPoint x="360" y="350" as="sourcePoint" />
            <mxPoint x="460" y="250" as="targetPoint" />
          </mxGeometry>
        </mxCell>
        <mxCell id="hgkGXKBCoWghcFRAlhSY-3" value="" style="edgeStyle=entityRelationEdgeStyle;fontSize=12;html=1;endArrow=ERoneToMany;startArrow=ERzeroToOne;rounded=0;entryX=0.006;entryY=0.623;entryDx=0;entryDy=0;entryPerimeter=0;" edge="1" parent="1">
          <mxGeometry width="100" height="100" relative="1" as="geometry">
            <mxPoint x="249.22" y="102.62" as="sourcePoint" />
            <mxPoint x="390" y="100" as="targetPoint" />
            <Array as="points">
              <mxPoint x="339.22" y="22.62" />
            </Array>
          </mxGeometry>
        </mxCell>
        <mxCell id="hgkGXKBCoWghcFRAlhSY-4" value="NORMATIVA" style="whiteSpace=wrap;html=1;align=center;" vertex="1" parent="1">
          <mxGeometry x="170.72" y="560" width="130" height="60" as="geometry" />
        </mxCell>
        <mxCell id="hgkGXKBCoWghcFRAlhSY-54" style="rounded=0;orthogonalLoop=1;jettySize=auto;html=1;entryX=0.064;entryY=0.855;entryDx=0;entryDy=0;entryPerimeter=0;" edge="1" parent="1" source="hgkGXKBCoWghcFRAlhSY-5" target="hgkGXKBCoWghcFRAlhSY-13">
          <mxGeometry relative="1" as="geometry" />
        </mxCell>
        <mxCell id="hgkGXKBCoWghcFRAlhSY-55" style="rounded=0;orthogonalLoop=1;jettySize=auto;html=1;exitX=1;exitY=0.75;exitDx=0;exitDy=0;entryX=0;entryY=0.5;entryDx=0;entryDy=0;" edge="1" parent="1" source="hgkGXKBCoWghcFRAlhSY-5" target="hgkGXKBCoWghcFRAlhSY-14">
          <mxGeometry relative="1" as="geometry" />
        </mxCell>
        <mxCell id="hgkGXKBCoWghcFRAlhSY-56" style="rounded=0;orthogonalLoop=1;jettySize=auto;html=1;entryX=0.048;entryY=0.245;entryDx=0;entryDy=0;entryPerimeter=0;" edge="1" parent="1" source="hgkGXKBCoWghcFRAlhSY-5" target="hgkGXKBCoWghcFRAlhSY-15">
          <mxGeometry relative="1" as="geometry">
            <mxPoint x="380" y="830" as="targetPoint" />
          </mxGeometry>
        </mxCell>
        <mxCell id="hgkGXKBCoWghcFRAlhSY-5" value="REGISTRO" style="whiteSpace=wrap;html=1;align=center;" vertex="1" parent="1">
          <mxGeometry x="305.03" y="750" width="100" height="40" as="geometry" />
        </mxCell>
        <mxCell id="hgkGXKBCoWghcFRAlhSY-7" value="ENTIDAD PUBLICA" style="whiteSpace=wrap;html=1;align=center;" vertex="1" parent="1">
          <mxGeometry x="520" y="555" width="130" height="60" as="geometry" />
        </mxCell>
        <mxCell id="hgkGXKBCoWghcFRAlhSY-28" style="edgeStyle=orthogonalEdgeStyle;rounded=0;orthogonalLoop=1;jettySize=auto;html=1;" edge="1" parent="1" source="hgkGXKBCoWghcFRAlhSY-8">
          <mxGeometry relative="1" as="geometry">
            <mxPoint x="135.02999999999997" y="840" as="targetPoint" />
          </mxGeometry>
        </mxCell>
        <mxCell id="hgkGXKBCoWghcFRAlhSY-8" value="CATEGORIA" style="whiteSpace=wrap;html=1;align=center;" vertex="1" parent="1">
          <mxGeometry x="85.03" y="760" width="100" height="40" as="geometry" />
        </mxCell>
        <mxCell id="hgkGXKBCoWghcFRAlhSY-39" style="edgeStyle=orthogonalEdgeStyle;rounded=0;orthogonalLoop=1;jettySize=auto;html=1;" edge="1" parent="1" source="hgkGXKBCoWghcFRAlhSY-9" target="hgkGXKBCoWghcFRAlhSY-4">
          <mxGeometry relative="1" as="geometry" />
        </mxCell>
        <mxCell id="hgkGXKBCoWghcFRAlhSY-9" value="id&amp;nbsp; nro normativa" style="ellipse;whiteSpace=wrap;html=1;align=center;fontStyle=4;" vertex="1" parent="1">
          <mxGeometry x="20" y="584.5" width="100" height="40" as="geometry" />
        </mxCell>
        <mxCell id="hgkGXKBCoWghcFRAlhSY-42" style="edgeStyle=orthogonalEdgeStyle;rounded=0;orthogonalLoop=1;jettySize=auto;html=1;exitX=1;exitY=1;exitDx=0;exitDy=0;entryX=0.081;entryY=0.03;entryDx=0;entryDy=0;entryPerimeter=0;" edge="1" parent="1" source="hgkGXKBCoWghcFRAlhSY-10" target="hgkGXKBCoWghcFRAlhSY-4">
          <mxGeometry relative="1" as="geometry" />
        </mxCell>
        <mxCell id="hgkGXKBCoWghcFRAlhSY-10" value="tipo de normativa" style="ellipse;whiteSpace=wrap;html=1;align=center;" vertex="1" parent="1">
          <mxGeometry x="50.05" y="480" width="100" height="40" as="geometry" />
        </mxCell>
        <mxCell id="hgkGXKBCoWghcFRAlhSY-40" style="edgeStyle=orthogonalEdgeStyle;rounded=0;orthogonalLoop=1;jettySize=auto;html=1;entryX=0.653;entryY=-0.023;entryDx=0;entryDy=0;entryPerimeter=0;" edge="1" parent="1" source="hgkGXKBCoWghcFRAlhSY-11" target="hgkGXKBCoWghcFRAlhSY-4">
          <mxGeometry relative="1" as="geometry" />
        </mxCell>
        <mxCell id="hgkGXKBCoWghcFRAlhSY-11" value="fecha de promulgacion" style="ellipse;whiteSpace=wrap;html=1;align=center;" vertex="1" parent="1">
          <mxGeometry x="205.03" y="490" width="100" height="40" as="geometry" />
        </mxCell>
        <mxCell id="hgkGXKBCoWghcFRAlhSY-12" value="se corresponde a" style="shape=rhombus;perimeter=rhombusPerimeter;whiteSpace=wrap;html=1;align=center;rotation=0;" vertex="1" parent="1">
          <mxGeometry x="235" y="660" width="100" height="54.21" as="geometry" />
        </mxCell>
        <mxCell id="hgkGXKBCoWghcFRAlhSY-13" value="id nro registro" style="ellipse;whiteSpace=wrap;html=1;align=center;fontStyle=4;" vertex="1" parent="1">
          <mxGeometry x="430" y="710" width="100" height="40" as="geometry" />
        </mxCell>
        <mxCell id="hgkGXKBCoWghcFRAlhSY-14" value="nombre y descripcion" style="ellipse;whiteSpace=wrap;html=1;align=center;" vertex="1" parent="1">
          <mxGeometry x="430" y="770" width="100" height="40" as="geometry" />
        </mxCell>
        <mxCell id="hgkGXKBCoWghcFRAlhSY-41" style="edgeStyle=orthogonalEdgeStyle;rounded=0;orthogonalLoop=1;jettySize=auto;html=1;exitX=0.5;exitY=1;exitDx=0;exitDy=0;" edge="1" parent="1" source="hgkGXKBCoWghcFRAlhSY-15">
          <mxGeometry relative="1" as="geometry">
            <mxPoint x="465" y="870" as="targetPoint" />
          </mxGeometry>
        </mxCell>
        <mxCell id="hgkGXKBCoWghcFRAlhSY-15" value="palabras clave" style="ellipse;whiteSpace=wrap;html=1;align=center;" vertex="1" parent="1">
          <mxGeometry x="430" y="840" width="100" height="40" as="geometry" />
        </mxCell>
        <mxCell id="hgkGXKBCoWghcFRAlhSY-59" style="rounded=0;orthogonalLoop=1;jettySize=auto;html=1;entryX=1;entryY=0;entryDx=0;entryDy=0;" edge="1" parent="1" source="hgkGXKBCoWghcFRAlhSY-16" target="hgkGXKBCoWghcFRAlhSY-7">
          <mxGeometry relative="1" as="geometry">
            <mxPoint x="660" y="550" as="targetPoint" />
          </mxGeometry>
        </mxCell>
        <mxCell id="hgkGXKBCoWghcFRAlhSY-16" value="id organo legislativo" style="ellipse;whiteSpace=wrap;html=1;align=center;fontStyle=4;" vertex="1" parent="1">
          <mxGeometry x="690" y="510" width="100" height="40" as="geometry" />
        </mxCell>
        <mxCell id="hgkGXKBCoWghcFRAlhSY-60" style="rounded=0;orthogonalLoop=1;jettySize=auto;html=1;entryX=1;entryY=1;entryDx=0;entryDy=0;" edge="1" parent="1" source="hgkGXKBCoWghcFRAlhSY-17" target="hgkGXKBCoWghcFRAlhSY-7">
          <mxGeometry relative="1" as="geometry" />
        </mxCell>
        <mxCell id="hgkGXKBCoWghcFRAlhSY-17" value="jurisdiccion" style="ellipse;whiteSpace=wrap;html=1;align=center;" vertex="1" parent="1">
          <mxGeometry x="680" y="620" width="100" height="40" as="geometry" />
        </mxCell>
        <mxCell id="hgkGXKBCoWghcFRAlhSY-19" value="id categoria" style="ellipse;whiteSpace=wrap;html=1;align=center;fontStyle=4;" vertex="1" parent="1">
          <mxGeometry x="85.03" y="830" width="100" height="40" as="geometry" />
        </mxCell>
        <mxCell id="hgkGXKBCoWghcFRAlhSY-23" value="" style="endArrow=none;html=1;rounded=0;" edge="1" parent="1">
          <mxGeometry relative="1" as="geometry">
            <mxPoint x="0.05000000000001137" y="380" as="sourcePoint" />
            <mxPoint x="881.5999755859375" y="380" as="targetPoint" />
          </mxGeometry>
        </mxCell>
        <mxCell id="hgkGXKBCoWghcFRAlhSY-26" value="" style="endArrow=none;html=1;rounded=0;exitX=0.5;exitY=1;exitDx=0;exitDy=0;entryX=0.5;entryY=0;entryDx=0;entryDy=0;" edge="1" parent="1" source="hgkGXKBCoWghcFRAlhSY-8" target="hgkGXKBCoWghcFRAlhSY-19">
          <mxGeometry relative="1" as="geometry">
            <mxPoint x="400" y="720" as="sourcePoint" />
            <mxPoint x="560" y="720" as="targetPoint" />
            <Array as="points" />
          </mxGeometry>
        </mxCell>
        <mxCell id="hgkGXKBCoWghcFRAlhSY-61" style="rounded=0;orthogonalLoop=1;jettySize=auto;html=1;" edge="1" parent="1" source="hgkGXKBCoWghcFRAlhSY-37">
          <mxGeometry relative="1" as="geometry">
            <mxPoint x="620" y="620" as="targetPoint" />
          </mxGeometry>
        </mxCell>
        <mxCell id="hgkGXKBCoWghcFRAlhSY-37" value="Attribute" style="ellipse;whiteSpace=wrap;html=1;align=center;" vertex="1" parent="1">
          <mxGeometry x="600" y="694.18" width="110" height="40" as="geometry" />
        </mxCell>
        <mxCell id="hgkGXKBCoWghcFRAlhSY-50" value="" style="edgeStyle=entityRelationEdgeStyle;fontSize=12;html=1;endArrow=ERmany;rounded=0;entryX=1;entryY=0.5;entryDx=0;entryDy=0;" edge="1" parent="1" target="hgkGXKBCoWghcFRAlhSY-4">
          <mxGeometry width="100" height="100" relative="1" as="geometry">
            <mxPoint x="490" y="590" as="sourcePoint" />
            <mxPoint x="530" y="670" as="targetPoint" />
          </mxGeometry>
        </mxCell>
        <mxCell id="hgkGXKBCoWghcFRAlhSY-18" value="es emitida por" style="shape=rhombus;perimeter=rhombusPerimeter;whiteSpace=wrap;html=1;align=center;" vertex="1" parent="1">
          <mxGeometry x="360" y="562.75" width="100" height="54.5" as="geometry" />
        </mxCell>
        <mxCell id="hgkGXKBCoWghcFRAlhSY-51" value="" style="edgeStyle=orthogonalEdgeStyle;fontSize=12;html=1;endArrow=ERmany;rounded=0;entryX=0.25;entryY=1;entryDx=0;entryDy=0;" edge="1" parent="1" source="hgkGXKBCoWghcFRAlhSY-20" target="hgkGXKBCoWghcFRAlhSY-4">
          <mxGeometry width="100" height="100" relative="1" as="geometry">
            <mxPoint x="130" y="770" as="sourcePoint" />
            <mxPoint x="230" y="660" as="targetPoint" />
            <Array as="points">
              <mxPoint x="140" y="632" />
              <mxPoint x="203" y="632" />
            </Array>
          </mxGeometry>
        </mxCell>
        <mxCell id="hgkGXKBCoWghcFRAlhSY-53" style="edgeStyle=orthogonalEdgeStyle;rounded=0;orthogonalLoop=1;jettySize=auto;html=1;entryX=0.5;entryY=0;entryDx=0;entryDy=0;" edge="1" parent="1" source="hgkGXKBCoWghcFRAlhSY-20" target="hgkGXKBCoWghcFRAlhSY-8">
          <mxGeometry relative="1" as="geometry" />
        </mxCell>
        <mxCell id="hgkGXKBCoWghcFRAlhSY-20" value="tiene&amp;nbsp;" style="shape=rhombus;perimeter=rhombusPerimeter;whiteSpace=wrap;html=1;align=center;rotation=0;" vertex="1" parent="1">
          <mxGeometry x="94.98" y="644.29" width="90.05" height="79.99" as="geometry" />
        </mxCell>
        <mxCell id="hgkGXKBCoWghcFRAlhSY-63" value="1" style="text;html=1;strokeColor=none;fillColor=none;align=center;verticalAlign=middle;whiteSpace=wrap;rounded=0;" vertex="1" parent="1">
          <mxGeometry x="470" y="562.75" width="60" height="30" as="geometry" />
        </mxCell>
        <mxCell id="hgkGXKBCoWghcFRAlhSY-64" value="n" style="text;html=1;strokeColor=none;fillColor=none;align=center;verticalAlign=middle;whiteSpace=wrap;rounded=0;" vertex="1" parent="1">
          <mxGeometry x="290" y="562.75" width="60" height="30" as="geometry" />
        </mxCell>
        <mxCell id="hgkGXKBCoWghcFRAlhSY-65" value="n" style="text;html=1;align=center;verticalAlign=middle;resizable=0;points=[];autosize=1;strokeColor=none;fillColor=none;" vertex="1" parent="1">
          <mxGeometry x="205" y="618" width="30" height="30" as="geometry" />
        </mxCell>
        <mxCell id="hgkGXKBCoWghcFRAlhSY-66" value="1" style="text;html=1;align=center;verticalAlign=middle;resizable=0;points=[];autosize=1;strokeColor=none;fillColor=none;" vertex="1" parent="1">
          <mxGeometry x="145" y="738" width="30" height="30" as="geometry" />
        </mxCell>
      </root>
    </mxGraphModel>
  </diagram>
</mxfile>
